# xmcd
#
# Track frame offsets: 
#        150
#        11254
#        20808
#        33819
#        49368
#        61286
#        72602
#        91525
#        102822
#        112203
#        122825
#
# Disc length: 1807 seconds
#
# Revision: 0
# Processed by: cddbd v1.5.1PL0 Copyright (c) Steve Scherf et al.
# Submitted via: ExactAudioCopy v0.95b2
#
DISCID=90070d0b
DTITLE=Ricky Broussard and Two Hoots and a Holler   - Shadow Man
DYEAR=1900
DGENRE=Rock and Roll
TTITLE0=Wild Bayou Nights
TTITLE1=Man on the Moon
TTITLE2=Blue Texas Northern
TTITLE3=There Is No Song
TTITLE4=Don't Wind Up Alone
TTITLE5=Done Gone Wrong
TTITLE6=Shadow Man
TTITLE7=Love Me Truly
TTITLE8=Hall of Pain
TTITLE9=The Boys
TTITLE10=Ghost House
EXTD=
EXTT0=
EXTT1=
EXTT2=
EXTT3=
EXTT4=
EXTT5=
EXTT6=
EXTT7=
EXTT8=
EXTT9=
EXTT10=
PLAYORDER=
